# xmcd
#
# Track frame offsets:
#	150
#	20705
#	36047
#	56192
#	71225
#	91902
#	112787
#	131507
#	150932
#	172327
#	194972
#	211980
#	231392
#
# Disc length: 3344 seconds
#
# Revision: 4
# Processed by: cddbd v1.5.2PL0 Copyright (c) Steve Scherf et al.
# Submitted via: EasyCDDAExtractor 16.0.6.1
#
DISCID=be0d0e0d
DTITLE=Σχοινάς Διονύσης - Τα Απολύτως Απαραίτητα
DYEAR=2001
DGENRE=Σύγχρονα Λαϊκά
TTITLE0=Με Μελαγχολεί Με Τον Γιώργο Αλκαίο
TTITLE1=Πονάς Για Μένα
TTITLE2=Για Μένα Είσαι Η Πιο Όμορφη
TTITLE3=Τι Τώρα, Τι Μετά...
TTITLE4=Δε Θα Με Ξεχνάς
TTITLE5=Μην Ανησυχείς 
TTITLE6=Θα Κλεισω Και Σε Παίρνω
TTITLE7=Δε Σε Ξέχασα
TTITLE8=Μου Ταιριάζεις 
TTITLE9=Συγκοινωνούντα Δοχεία 
TTITLE10=Ταράμ Ταράμ Ταμ
TTITLE11=Μη Μου Ζητάς
TTITLE12=Η Μέρα Της Κρίσης
EXTD=
EXTT0=
EXTT1=
EXTT2=
EXTT3=
EXTT4=
EXTT5=
EXTT6=
EXTT7=
EXTT8=
EXTT9=
EXTT10=
EXTT11=
EXTT12=
PLAYORDER=
